# xmcd
#
# Track frame offsets:
#	150
#	12185
#	24872
#	37827
#	51702
#	62745
#	76087
#	88532
#	99202
#	112270
#	124070
#
# Disc length: 1831 seconds
#
# Revision: 3
# Processed by: cddbd v1.5.1PL0 Copyright (c) Steve Scherf et al.
# Submitted via: audiograbber 1.83.01
#
DISCID=7f07250b
DTITLE=Martha Reeves and The Vandellas - The Millennium Collection
DYEAR=1995
DGENRE=Soul
TTITLE0=Dancing In The Street
TTITLE1=Nowhere To Run
TTITLE2=Jimmy Mack
TTITLE3=My Baby Loves Me
TTITLE4=In My Lonely Room
TTITLE5=I'm Ready For Love
TTITLE6=(Love Is Like A) Heat Wave
TTITLE7=Come And Get These Memories
TTITLE8=Love (Makes Me Do Foolish Things)
TTITLE9=Quicksand
TTITLE10=Honey Chile
EXTD=
EXTT0=
EXTT1=
EXTT2=
EXTT3=
EXTT4=
EXTT5=
EXTT6=
EXTT7=
EXTT8=
EXTT9=
EXTT10=
PLAYORDER=
